<svg id="Layer_1" data-name="Layer 1" xmlns="http://www.w3.org/2000/svg" viewBox="0 0 278.99 116.99"><defs><style>.cls-1{fill:#0f0f69;}.cls-2{fill:#5a3c1e;}</style></defs><title>Artboard 25</title><path class="cls-1" d="M73.75,101.9h15.4L53.7,17H26.81v2.2l6,.38a6.65,6.65,0,0,1,5.69,9.26L7,102.27h8.8L26.68,75.5H63ZM29,69.81,44.78,30.94,60.65,69.81Z"/><path class="cls-2" d="M174.28,85.49c.7-.85,1.4-1.73,2.09-2.66,3.55-5.62,10.64-21,9.66-24.93l-23.35-.13s22.39,5.38,8.23,25.3c-13.61-10-29.58-24-43-42.54a12.37,12.37,0,0,1-2.39-7.14c0-4.34,1.78-10.52,10.89-13.75a13.79,13.79,0,0,1,4.16-.06c5,.3,13.32,5.74,11.85,14.48l6.36-11.24s-7.7-10.39-25.12-5.26c-6.19,1.82-25.72,13.58-7.55,38.91C119.1,59.76,100.59,70,104.38,85c1.1,4.28,5.74,13.57,20.78,18,4.66,1.14,22.7,6.49,41.28-9.45,5.73,4.78,9.69,8,9.69,8h25.18A181.38,181.38,0,0,1,174.28,85.49ZM128.7,96.28C125,94.37,106.61,78.8,129,60c7.83,8.46,23.79,22.21,35,31.57C156.92,98.5,146.11,103.82,128.7,96.28Z"/><path class="cls-1" d="M252.09,22h-47.8v2.57l8.14.82a6.94,6.94,0,0,1,6.23,7c-.19,18.51-.68,71.31-.43,71.06,1-1,15,0,15,0V67.8h20.48a20.59,20.59,0,0,0,20.59-20.6v-3A22.25,22.25,0,0,0,252.09,22ZM260,48.48a13,13,0,0,1-12.95,13H232.41L232,34.2a7,7,0,0,1,7-7.06l7,.05a14.06,14.06,0,0,1,14,14.06Z"/></svg>