<?xml version="1.0" encoding="utf-8"?>
<!-- Generator: Adobe Illustrator 22.0.0, SVG Export Plug-In . SVG Version: 6.00 Build 0)  -->
<svg version="1.0" id="Layer_1" xmlns="http://www.w3.org/2000/svg" xmlns:xlink="http://www.w3.org/1999/xlink" x="0px" y="0px"
	 viewBox="0 0 163.5 121.5" enable-background="new 0 0 163.5 121.5" xml:space="preserve">
<g>
	<path d="M152.4,8.8H11.8c-0.9,0-1.7,0.7-1.7,1.7v97.4c0,0.9,0.7,1.7,1.7,1.7h84.2l0.7,4.6c0.1,0.6,0.5,1.1,1.1,1.3
		c0.2,0.1,0.3,0.1,0.5,0.1c0.4,0,0.9-0.2,1.2-0.5l5.5-5.5h17.3l5.5,5.5c0.3,0.3,0.7,0.5,1.2,0.5c0.2,0,0.3,0,0.5-0.1
		c0.6-0.2,1-0.7,1.1-1.3l0.7-4.6h21.2c0.9,0,1.7-0.7,1.7-1.7V10.5C154.1,9.6,153.3,8.8,152.4,8.8L152.4,8.8z M140.4,102.4l-1.8-1.8
		h4.2l5.6,5.6h-15.6l6.6-1c0.6-0.1,1.1-0.5,1.3-1.1C141,103.5,140.8,102.8,140.4,102.4L140.4,102.4z M115.3,98
		c-0.6,0.4-1.3,0.9-1.8,0.9c-0.5,0-1.1-0.4-1.8-0.9c-0.6-0.4-1.4-0.9-2.2-1.2c-0.8-0.3-1.7-0.3-2.5-0.3c-0.8,0-1.5-0.1-1.9-0.3
		c-0.3-0.3-0.6-1-0.9-1.7c-0.3-0.7-0.6-1.6-1.1-2.3c-0.5-0.7-1.2-1.2-1.8-1.7c-0.6-0.5-1.2-1-1.4-1.4c-0.1-0.4,0.1-1.1,0.3-1.8
		c0.2-0.8,0.5-1.6,0.5-2.5c0-0.9-0.2-1.8-0.5-2.5c-0.2-0.7-0.4-1.5-0.3-1.8c0.1-0.4,0.8-0.9,1.4-1.4c0.6-0.5,1.3-1,1.8-1.7
		c0.5-0.7,0.8-1.5,1.1-2.3c0.3-0.7,0.5-1.5,0.9-1.7c0.3-0.2,1.1-0.3,1.9-0.3c0.8,0,1.7-0.1,2.5-0.3c0.8-0.3,1.5-0.8,2.2-1.2
		c0.6-0.4,1.3-0.9,1.8-0.9c0.5,0,1.1,0.4,1.8,0.9c0.6,0.4,1.4,0.9,2.2,1.2c0.8,0.3,1.7,0.3,2.5,0.3c0.8,0,1.5,0.1,1.9,0.3
		c0.3,0.3,0.6,1,0.9,1.7c0.3,0.7,0.6,1.6,1.1,2.3c0.5,0.7,1.2,1.2,1.8,1.7c0.6,0.5,1.2,1,1.4,1.4c0.1,0.4-0.1,1.1-0.3,1.8
		c-0.2,0.8-0.5,1.6-0.5,2.5c0,0.9,0.2,1.8,0.5,2.5c0.2,0.7,0.4,1.5,0.3,1.8c-0.1,0.4-0.8,0.9-1.4,1.4c-0.6,0.5-1.3,1-1.8,1.7
		c-0.5,0.7-0.8,1.5-1.1,2.3c-0.3,0.7-0.5,1.5-0.9,1.7c-0.3,0.2-1.1,0.3-1.9,0.3c-0.8,0-1.7,0.1-2.5,0.3
		C116.7,97.1,116,97.6,115.3,98L115.3,98z M130,86.4c-0.2-0.6-0.3-1.2-0.3-1.6c0-0.5,0.2-1,0.3-1.6c0.3-1.1,0.7-2.4,0.3-3.8
		c-0.4-1.4-1.6-2.3-2.5-3c-0.5-0.4-0.9-0.7-1.2-1.1c-0.2-0.3-0.4-0.9-0.7-1.5c-0.4-1.1-0.9-2.4-2-3.2c-1.2-0.8-2.5-0.9-3.7-0.9
		c-0.6,0-1.2,0-1.6-0.2c-0.4-0.1-0.8-0.4-1.3-0.8c-1-0.6-2.1-1.4-3.6-1.4c-1.5,0-2.7,0.8-3.6,1.4c-0.5,0.3-1,0.7-1.3,0.8
		c-0.4,0.1-1,0.2-1.6,0.2c-1.2,0-2.5,0.1-3.7,0.9c-1.2,0.8-1.6,2.1-2,3.2c-0.2,0.6-0.4,1.1-0.7,1.5c-0.2,0.3-0.7,0.7-1.2,1.1
		c-0.9,0.7-2,1.6-2.5,3c-0.4,1.3-0.1,2.6,0.3,3.8c0.2,0.6,0.3,1.2,0.3,1.6c0,0.5-0.2,1-0.3,1.6c-0.3,1.1-0.7,2.4-0.3,3.8
		c0.2,0.5,0.4,1,0.8,1.4l-5.8,5.8H22.4V21.1h119.4v76.2h-6.5l-5.8-5.8c0.3-0.4,0.6-0.8,0.8-1.4C130.6,88.8,130.3,87.5,130,86.4
		L130,86.4z M86.4,104.1c0.2,0.6,0.7,1,1.3,1.1l6.6,1H15.8l5.6-5.6h67.2l-1.8,1.8C86.3,102.8,86.2,103.5,86.4,104.1L86.4,104.1z
		 M142.8,17.8H21.4l-5.6-5.6h132.7L142.8,17.8z M19,20.1v78.1l-5.6,5.6V14.5L19,20.1z M145.1,98.3V20.1l5.6-5.6v89.4L145.1,98.3z
		 M99.4,110.4l-0.9-5.7c-0.1-0.7-0.7-1.3-1.4-1.4l-5.7-0.9l8.7-8.7c0.2,0.2,0.3,0.3,0.4,0.4c0.2,0.3,0.5,0.9,0.7,1.5
		c0.4,1.1,0.9,2.4,2,3.2c1.2,0.8,2.5,0.9,3.7,0.9c0.6,0,1.2,0,1.6,0.2c0.2,0.1,0.5,0.2,0.8,0.4L99.4,110.4z M108.2,106.2l4.2-4.2
		c0.4,0.1,0.7,0.2,1.1,0.2c0.4,0,0.8-0.1,1.1-0.2l4.2,4.2H108.2z M128.6,104.7l-0.9,5.7l-10-10c0.3-0.2,0.6-0.3,0.8-0.4
		c0.4-0.1,1-0.2,1.6-0.2c1.2,0,2.5-0.1,3.7-0.9c1.2-0.8,1.6-2.1,2-3.2c0.2-0.6,0.4-1.1,0.7-1.5c0.1-0.1,0.3-0.3,0.4-0.4l8.7,8.7
		l-5.7,0.9C129.3,103.4,128.8,104,128.6,104.7L128.6,104.7z M128.6,104.7"/>
	<path d="M123.8,84.7c0-5.6-4.6-10.2-10.2-10.2c-5.6,0-10.2,4.6-10.2,10.2c0,5.6,4.6,10.2,10.2,10.2
		C119.2,94.9,123.8,90.3,123.8,84.7L123.8,84.7z M113.6,91.6c-3.8,0-6.9-3.1-6.9-6.9c0-3.8,3.1-6.9,6.9-6.9c3.8,0,6.9,3.1,6.9,6.9
		C120.5,88.5,117.4,91.6,113.6,91.6L113.6,91.6z M113.6,91.6"/>
	<path d="M79.1,33.4c0.9,0,1.7-0.7,1.7-1.7V26c0-0.9-0.7-1.7-1.7-1.7c-0.9,0-1.7,0.7-1.7,1.7v5.7C77.4,32.6,78.2,33.4,79.1,33.4
		L79.1,33.4z M79.1,33.4"/>
	<path d="M85.1,33.4c0.9,0,1.7-0.7,1.7-1.7V26c0-0.9-0.7-1.7-1.7-1.7c-0.9,0-1.7,0.7-1.7,1.7v5.7C83.4,32.6,84.1,33.4,85.1,33.4
		L85.1,33.4z M85.1,33.4"/>
	<path d="M91.5,30.5h10.8c0.9,0,1.7-0.7,1.7-1.7c0-0.9-0.7-1.7-1.7-1.7H91.5c-0.9,0-1.7,0.7-1.7,1.7C89.8,29.8,90.6,30.5,91.5,30.5
		L91.5,30.5z M91.5,30.5"/>
	<path d="M61.9,30.5h10.8c0.9,0,1.7-0.7,1.7-1.7c0-0.9-0.7-1.7-1.7-1.7H61.9c-0.9,0-1.7,0.7-1.7,1.7C60.2,29.8,61,30.5,61.9,30.5
		L61.9,30.5z M61.9,30.5"/>
	<path d="M124.7,38.4H39.4c-0.9,0-1.7,0.7-1.7,1.7c0,0.9,0.7,1.7,1.7,1.7h85.3c0.9,0,1.7-0.7,1.7-1.7
		C126.4,39.2,125.6,38.4,124.7,38.4L124.7,38.4z M124.7,38.4"/>
	<path d="M124.7,45.4H39.4c-0.9,0-1.7,0.7-1.7,1.7c0,0.9,0.7,1.7,1.7,1.7h85.3c0.9,0,1.7-0.7,1.7-1.7
		C126.4,46.1,125.6,45.4,124.7,45.4L124.7,45.4z M124.7,45.4"/>
	<path d="M124.7,52.3H39.4c-0.9,0-1.7,0.7-1.7,1.7c0,0.9,0.7,1.7,1.7,1.7h85.3c0.9,0,1.7-0.7,1.7-1.7
		C126.4,53,125.6,52.3,124.7,52.3L124.7,52.3z M124.7,52.3"/>
	<path d="M124.7,59.2H39.4c-0.9,0-1.7,0.7-1.7,1.7c0,0.9,0.7,1.7,1.7,1.7h85.3c0.9,0,1.7-0.7,1.7-1.7
		C126.4,60,125.6,59.2,124.7,59.2L124.7,59.2z M124.7,59.2"/>
	<path d="M78.8,78H39.4c-0.9,0-1.7,0.7-1.7,1.7c0,0.9,0.7,1.7,1.7,1.7h39.4c0.9,0,1.7-0.7,1.7-1.7C80.5,78.7,79.7,78,78.8,78
		L78.8,78z M78.8,78"/>
	<path d="M63.8,84.6H39.4c-0.9,0-1.7,0.7-1.7,1.7c0,0.9,0.7,1.7,1.7,1.7h24.3c0.9,0,1.7-0.7,1.7-1.7C65.4,85.4,64.7,84.6,63.8,84.6
		L63.8,84.6z M63.8,84.6"/>
	<path d="M26.2,31.6c-0.9,0-1.7,0.7-1.7,1.7v13.3c0,0.9,0.7,1.7,1.7,1.7c0.9,0,1.7-0.7,1.7-1.7V33.3C27.9,32.3,27.1,31.6,26.2,31.6
		L26.2,31.6z M26.2,31.6"/>
	<path d="M26.2,23.9c-0.9,0-1.7,0.7-1.7,1.7V28c0,0.9,0.7,1.7,1.7,1.7c0.9,0,1.7-0.7,1.7-1.7v-2.4C27.9,24.6,27.1,23.9,26.2,23.9
		L26.2,23.9z M26.2,23.9"/>
	<path d="M138.2,94.1c0.9,0,1.7-0.7,1.7-1.7V75.2c0-0.9-0.7-1.7-1.7-1.7c-0.9,0-1.7,0.7-1.7,1.7v17.2
		C136.6,93.4,137.3,94.1,138.2,94.1L138.2,94.1z M138.2,94.1"/>
	<path d="M138.2,72c0.9,0,1.7-0.7,1.7-1.7v-3.1c0-0.9-0.7-1.7-1.7-1.7c-0.9,0-1.7,0.7-1.7,1.7v3.1C136.6,71.3,137.3,72,138.2,72
		L138.2,72z M138.2,72"/>
</g>
</svg>
