<?xml version="1.0" encoding="utf-8"?>
<!-- Generator: Adobe Illustrator 19.0.0, SVG Export Plug-In . SVG Version: 6.00 Build 0)  -->
<svg version="1.0" id="Layer_1" xmlns="http://www.w3.org/2000/svg" xmlns:xlink="http://www.w3.org/1999/xlink" x="0px" y="0px"
	 viewBox="0 0 80 70" enable-background="new 0 0 80 70" xml:space="preserve">
<g id="XMLID_138_">
	
		<path id="XMLID_143_" fill-rule="evenodd" clip-rule="evenodd" fill="none" stroke="#000000" stroke-width="2" stroke-miterlimit="10" d="
		M33.1,48.6c-6.7-1.5-11.6-7.2-11.6-14.1c0-8,6.7-14.5,15-14.5c0,0,0,0,0,0v14.5l11.7-9.1c1.9,2.2,3,5,3.3,8"/>
	
		<path id="XMLID_141_" fill-rule="evenodd" clip-rule="evenodd" fill="none" stroke="#000000" stroke-width="2" stroke-miterlimit="10" d="
		M40.5,25.9V11c0,0,0,0,0,0c4.7,0,8.9,2.2,11.6,5.6L40.5,25.9z"/>
	
		<path id="XMLID_139_" fill-rule="evenodd" clip-rule="evenodd" fill="none" stroke="#000000" stroke-width="2" stroke-miterlimit="10" d="
		M8.5,59v-0.9l9-3l6-6.9l7,3l20-17.9l6,2l15-11.9V59H8.5z"/>
</g>
</svg>
