<?xml version="1.0" encoding="utf-8"?>
<!-- Generator: Adobe Illustrator 19.0.0, SVG Export Plug-In . SVG Version: 6.00 Build 0)  -->
<svg version="1.0" id="Layer_1" xmlns="http://www.w3.org/2000/svg" xmlns:xlink="http://www.w3.org/1999/xlink" x="0px" y="0px"
	 viewBox="0 0 80 70" enable-background="new 0 0 80 70" xml:space="preserve">
<g id="XMLID_154_">
	
		<path id="XMLID_185_" fill-rule="evenodd" clip-rule="evenodd" fill="none" stroke="#000000" stroke-width="2" stroke-miterlimit="10" d="
		M68,33h-7v5h-4v-3h-5l-5-5v-5H23L13,35v17c8,0,9,7,9,7s15.7,0,24,0c8,0,10.2-5.1,10.8-8H61v4h7c2.8,0,5-2.2,5-5V38
		C73,35.2,70.8,33,68,33z"/>
	
		<path id="XMLID_181_" fill-rule="evenodd" clip-rule="evenodd" fill="none" stroke="#000000" stroke-width="2" stroke-miterlimit="10" d="
		M33,26v-5"/>
	
		<path id="XMLID_179_" fill-rule="evenodd" clip-rule="evenodd" fill="none" stroke="#000000" stroke-width="2" stroke-miterlimit="10" d="
		M23,20h22"/>
	
		<path id="XMLID_177_" fill-rule="evenodd" clip-rule="evenodd" fill="none" stroke="#000000" stroke-width="2" stroke-miterlimit="10" d="
		M7,41h6"/>
	
		<path id="XMLID_175_" fill-rule="evenodd" clip-rule="evenodd" fill="none" stroke="#000000" stroke-width="2" stroke-miterlimit="10" d="
		M8,35v14"/>
	
		<path id="XMLID_173_" fill-rule="evenodd" clip-rule="evenodd" fill="none" stroke="#000000" stroke-width="2" stroke-miterlimit="10" d="
		M29,35h23"/>
	
		<path id="XMLID_171_" fill-rule="evenodd" clip-rule="evenodd" fill="none" stroke="#000000" stroke-width="2" stroke-miterlimit="10" d="
		M29,44v4"/>
	
		<path id="XMLID_169_" fill-rule="evenodd" clip-rule="evenodd" fill="none" stroke="#000000" stroke-width="2" stroke-miterlimit="10" d="
		M34,44v4"/>
	
		<path id="XMLID_167_" fill-rule="evenodd" clip-rule="evenodd" fill="none" stroke="#000000" stroke-width="2" stroke-miterlimit="10" d="
		M39,44v4"/>
	
		<path id="XMLID_165_" fill-rule="evenodd" clip-rule="evenodd" fill="none" stroke="#000000" stroke-width="2" stroke-miterlimit="10" d="
		M44,44v4"/>
	
		<path id="XMLID_163_" fill-rule="evenodd" clip-rule="evenodd" fill="none" stroke="#000000" stroke-width="2" stroke-miterlimit="10" d="
		M49,44v4"/>
</g>
</svg>
