<?xml version="1.0" encoding="utf-8"?>
<!-- Generator: Adobe Illustrator 19.2.1, SVG Export Plug-In . SVG Version: 6.00 Build 0)  -->
<svg version="1.1" id="Layer_1" xmlns="http://www.w3.org/2000/svg" xmlns:xlink="http://www.w3.org/1999/xlink" x="0px" y="0px"
	 viewBox="0 0 282.7 27.6" style="enable-background:new 0 0 282.7 27.6;" xml:space="preserve">
<style type="text/css">
	.st0{fill:#FFFFFF;}
</style>
<g>
	<path class="st0" d="M93.9,0h10.3c1.4,0,2.8,0.1,4.1,0.4c1.3,0.3,2.4,0.7,3.3,1.3c0.9,0.6,1.7,1.5,2.3,2.6c0.6,1.1,0.8,2.4,0.8,4.1
		c0,1.6-0.3,3-0.8,4.1s-1.2,2-2.1,2.6c-0.9,0.7-2,1.1-3.2,1.4s-2.6,0.4-4.1,0.4h-4.4v10.8H94L93.9,0L93.9,0z M100,11.7h4.1
		c0.5,0,1.1-0.1,1.6-0.2s1-0.3,1.4-0.5s0.7-0.6,1-1c0.2-0.4,0.4-1,0.4-1.6c0-0.7-0.2-1.3-0.5-1.7c-0.3-0.4-0.7-0.8-1.2-1
		s-1.1-0.4-1.7-0.4c-0.6-0.1-1.2-0.1-1.8-0.1h-3.1v6.5H100z"/>
	<path class="st0" d="M124.7,0h5l12,27.6h-6.9l-2.4-5.8h-10.7l-2.3,5.8h-6.7L124.7,0z M127,8.1l-3.4,8.6h6.7L127,8.1z"/>
	<path class="st0" d="M144.5,0h10.7c1.4,0,2.7,0.1,4,0.4s2.4,0.7,3.3,1.4c0.9,0.6,1.7,1.5,2.3,2.6c0.6,1.1,0.8,2.4,0.8,4
		c0,2-0.5,3.6-1.5,5s-2.5,2.2-4.4,2.6l7,11.7h-7.3l-5.8-11h-3v11h-6.1V0z M150.6,11.4h3.6c0.5,0,1.1,0,1.7-0.1s1.2-0.2,1.7-0.4
		c0.5-0.2,0.9-0.5,1.2-0.9c0.3-0.4,0.5-1,0.5-1.8c0-0.7-0.1-1.3-0.4-1.7c-0.3-0.4-0.7-0.7-1.1-1c-0.4-0.2-0.9-0.4-1.5-0.4
		C155.7,5,155.2,5,154.6,5h-4L150.6,11.4L150.6,11.4z"/>
	<path class="st0" d="M178.8,0h5l12,27.6h-6.9l-2.4-5.8h-10.7l-2.3,5.8h-6.7L178.8,0z M181.2,8.1l-3.4,8.6h6.7L181.2,8.1z"/>
	<path class="st0" d="M198.9,0h6.1v22h11.3v5.6h-17.4V0z"/>
	<path class="st0" d="M219.8,0h6.1v22h11.3v5.6h-17.4V0z"/>
	<path class="st0" d="M240.8,0h18.7v5.6h-12.7v5.1h12v5.6h-12v5.6h13.4v5.6h-19.5V0H240.8z"/>
	<path class="st0" d="M265.3,0h6.1v22h11.3v5.6h-17.4V0z"/>
</g>
<g>
	<path class="st0" d="M7.9,5.4H0V0h21.8v5.4h-7.9v22.2H7.8L7.9,5.4L7.9,5.4z"/>
	<path class="st0" d="M24.9,0H31v10.3h11.8V0h6.1v27.6h-6.1V15.7H31v11.9h-6.1V0z"/>
	<path class="st0" d="M54.8,0h18.7v5.6H60.8v5.1h12v5.6h-12v5.6h13.4v5.6H54.7V0H54.8z"/>
</g>
</svg>
