<?xml version="1.0" encoding="utf-8"?>
<!-- Generator: Adobe Illustrator 19.0.0, SVG Export Plug-In . SVG Version: 6.00 Build 0)  -->
<svg version="1.0" id="Layer_1" xmlns="http://www.w3.org/2000/svg" xmlns:xlink="http://www.w3.org/1999/xlink" x="0px" y="0px"
	 viewBox="0 0 80 70" enable-background="new 0 0 80 70" xml:space="preserve">
<g id="XMLID_151_">
	
		<path id="XMLID_161_" fill-rule="evenodd" clip-rule="evenodd" fill="none" stroke="#000000" stroke-width="2" stroke-miterlimit="10" d="
		M18,23.5h44l3,5v25l-3,5H18l-3-5v-25L18,23.5z"/>
	
		<path id="XMLID_159_" fill-rule="evenodd" clip-rule="evenodd" fill="none" stroke="#000000" stroke-width="2" stroke-miterlimit="10" d="
		M31,23.5v-2c0-2.8,2.2-5,5-5h8c2.8,0,5,2.2,5,5v2"/>
	
		<path id="XMLID_157_" fill-rule="evenodd" clip-rule="evenodd" fill="none" stroke="#000000" stroke-width="2" stroke-miterlimit="10" d="
		M52,23.5v-0.9c0-1.2,1-2.1,2.2-2.1h3.6c1.2,0,2.2,1,2.2,2.1v0.9"/>
	
		<path id="XMLID_155_" fill-rule="evenodd" clip-rule="evenodd" fill="none" stroke="#000000" stroke-width="2" stroke-miterlimit="10" d="
		M20,23.5v-0.9c0-1.2,1-2.1,2.2-2.1h3.6c1.2,0,2.2,1,2.2,2.1v0.9"/>
	
		<path id="XMLID_152_" fill-rule="evenodd" clip-rule="evenodd" fill="none" stroke="#000000" stroke-width="2" stroke-miterlimit="10" d="
		M31.4,19.5h16.7"/>
	
		<polygon id="XMLID_153_" fill-rule="evenodd" clip-rule="evenodd" fill="none" stroke="#000000" stroke-width="2" stroke-miterlimit="10" points="
		50,37 44,37 44,31 36,31 36,37 30,37 30,45 36,45 36,51 44,51 44,45 50,45 	"/>
</g>
</svg>
