<?xml version="1.0" encoding="utf-8"?>
<!-- Generator: Adobe Illustrator 22.0.1, SVG Export Plug-In . SVG Version: 6.00 Build 0)  -->
<svg version="1.1" id="Layer_1" xmlns="http://www.w3.org/2000/svg" xmlns:xlink="http://www.w3.org/1999/xlink" x="0px" y="0px"
	 viewBox="0 0 102 14.8" style="enable-background:new 0 0 102 14.8;" xml:space="preserve">
<style type="text/css">
	.st0{fill:#FFFFFF;}
</style>
<path class="st0" d="M11.2,4.6c0,0.9-0.2,1.6-0.5,2.2s-0.7,1-1.3,1.4C8.9,8.6,8.3,8.8,7.6,9S6.1,9.3,5.3,9.3H3.6v5.6H0V0h5.4
	C6.2,0,7,0.1,7.7,0.3C8.4,0.4,9,0.7,9.5,1s0.9,0.8,1.2,1.4C11.1,3,11.2,3.7,11.2,4.6z M7.6,4.6c0-0.3-0.1-0.6-0.2-0.9
	C7.3,3.5,7.1,3.3,6.9,3.2C6.6,3.1,6.4,3,6.1,3S5.5,2.9,5.2,2.9H3.6v3.5h1.5c0.3,0,0.7,0,1-0.1S6.6,6.2,6.9,6
	c0.2-0.1,0.4-0.3,0.6-0.6C7.6,5.2,7.6,5,7.6,4.6z"/>
<path class="st0" d="M23.4,14.8l-1.2-2.9h-5.7l-1.1,2.9h-3.9L17.8,0h3.5l6.2,14.8H23.4z M19.5,4l-1.9,5.1h3.7L19.5,4z"/>
<path class="st0" d="M36.6,14.8L33.5,9h-1.2v5.9h-3.5V0h5.7c0.7,0,1.4,0.1,2.1,0.2c0.7,0.1,1.3,0.4,1.8,0.7s1,0.8,1.3,1.4
	C39.8,2.9,40,3.6,40,4.5c0,1-0.3,1.8-0.8,2.5S38,8.2,37,8.5l3.9,6.3H36.6z M36.5,4.6c0-0.3-0.1-0.6-0.2-0.8
	c-0.1-0.2-0.3-0.4-0.6-0.5C35.5,3.1,35.2,3,35,3S34.3,2.9,34,2.9h-1.9v3.5h1.7c0.3,0,0.6,0,0.9-0.1c0.3,0,0.6-0.1,0.8-0.3
	c0.3-0.1,0.5-0.3,0.6-0.5C36.5,5.2,36.5,4.9,36.5,4.6z"/>
<path class="st0" d="M52.6,14.8l-1.2-2.9h-5.7l-1.1,2.9h-3.9L47,0h3.5l6.2,14.8H52.6z M48.6,4l-1.9,5.1h3.7L48.6,4z"/>
<path class="st0" d="M57.8,14.8V0h3.6v11.7h5.7v3.1C67.1,14.8,57.8,14.8,57.8,14.8z"/>
<path class="st0" d="M68.9,14.8V0h3.6v11.7h5.7v3.1C78.1,14.8,68.9,14.8,68.9,14.8z"/>
<path class="st0" d="M79.9,14.8V0h10v3h-6.5v2.8h6.2v2.9h-6.2v3.1h6.9v3.1H79.9V14.8z"/>
<path class="st0" d="M92.6,14.8V0h3.6v11.7h5.7v3.1C101.8,14.8,92.6,14.8,92.6,14.8z"/>
</svg>
