<?xml version="1.0" encoding="utf-8"?>
<!-- Generator: Adobe Illustrator 19.0.0, SVG Export Plug-In . SVG Version: 6.00 Build 0)  -->
<svg version="1.0" id="Layer_1" xmlns="http://www.w3.org/2000/svg" xmlns:xlink="http://www.w3.org/1999/xlink" x="0px" y="0px"
	 viewBox="0 0 80 70" enable-background="new 0 0 80 70" xml:space="preserve">
<g id="XMLID_193_">
	
		<path id="XMLID_217_" fill-rule="evenodd" clip-rule="evenodd" fill="none" stroke="#000000" stroke-width="2" stroke-miterlimit="10" d="
		M38,38.5v-18h10v18"/>
	
		<path id="XMLID_215_" fill-rule="evenodd" clip-rule="evenodd" fill="none" stroke="#000000" stroke-width="2" stroke-miterlimit="10" d="
		M51,38.5v-18h10v18"/>
	
		<path id="XMLID_213_" fill-rule="evenodd" clip-rule="evenodd" fill="none" stroke="#000000" stroke-width="2" stroke-miterlimit="10" d="
		M61,26.5H51"/>
	
		<path id="XMLID_211_" fill-rule="evenodd" clip-rule="evenodd" fill="none" stroke="#000000" stroke-width="2" stroke-miterlimit="10" d="
		M48,26.5H38"/>
	
		<path id="XMLID_209_" fill-rule="evenodd" clip-rule="evenodd" fill="none" stroke="#000000" stroke-width="2" stroke-miterlimit="10" d="
		M13,42.5v-4h55l-2,5.3"/>
	
		<path id="XMLID_207_" fill-rule="evenodd" clip-rule="evenodd" fill="none" stroke="#000000" stroke-width="2" stroke-miterlimit="10" d="
		M13,38.5v-4l20-3v7"/>
	
		<path id="XMLID_205_" fill-rule="evenodd" clip-rule="evenodd" fill="none" stroke="#000000" stroke-width="2" stroke-miterlimit="10" d="
		M65,56.5l7-13H62l-2,3H25l-2-4H8l7,14"/>
	
		<path id="XMLID_203_" fill-rule="evenodd" clip-rule="evenodd" fill="none" stroke="#000000" stroke-width="2" stroke-miterlimit="10" d="
		M29,42.5h5"/>
	
		<path id="XMLID_201_" fill-rule="evenodd" clip-rule="evenodd" fill="none" stroke="#000000" stroke-width="2" stroke-miterlimit="10" d="
		M37,42.5h5"/>
	
		<path id="XMLID_199_" fill-rule="evenodd" clip-rule="evenodd" fill="none" stroke="#000000" stroke-width="2" stroke-miterlimit="10" d="
		M45,42.5h5"/>
	
		<path id="XMLID_197_" fill-rule="evenodd" clip-rule="evenodd" fill="none" stroke="#000000" stroke-width="2" stroke-miterlimit="10" d="
		M53,42.5h5"/>
	
		<path id="XMLID_195_" fill-rule="evenodd" clip-rule="evenodd" fill="none" stroke="#000000" stroke-width="2" stroke-miterlimit="10" d="
		M10,59.5c2.1,0,3.1-3,5-3s3.1,3,5,3s2.9-3,5-3s3,3,5,3s3-3,5-3s3,3,5,3s2.9-3,5-3s3,3,5,3s3.1-3,5-3s3.1,3,5,3c1.9,0,2.9-3,5-3
		c2.1,0,3,3,5,3"/>
</g>
</svg>
