<?xml version="1.0" encoding="utf-8"?>
<!-- Generator: Adobe Illustrator 22.0.1, SVG Export Plug-In . SVG Version: 6.00 Build 0)  -->
<svg version="1.1" id="Layer_1" xmlns="http://www.w3.org/2000/svg" xmlns:xlink="http://www.w3.org/1999/xlink" x="0px" y="0px"
	 viewBox="0 0 469.7 187.5" style="enable-background:new 0 0 469.7 187.5;" xml:space="preserve">
<style type="text/css">
	.st0{fill:#011FFF;}
</style>
<g>
	<path d="M203.8,85h10.3c1.4,0,2.8,0.1,4.1,0.4c1.3,0.3,2.4,0.7,3.3,1.3c0.9,0.6,1.7,1.5,2.3,2.6c0.6,1.1,0.8,2.4,0.8,4.1
		c0,1.6-0.3,3-0.8,4.1c-0.5,1.1-1.2,2-2.1,2.6c-0.9,0.7-2,1.1-3.2,1.4c-1.2,0.3-2.6,0.4-4.1,0.4h-4.4v10.8h-6.1V85z M209.9,96.7h4.1
		c0.5,0,1.1-0.1,1.6-0.2c0.5-0.1,1-0.3,1.4-0.5c0.4-0.2,0.7-0.6,1-1c0.2-0.4,0.4-1,0.4-1.6c0-0.7-0.2-1.3-0.5-1.7
		c-0.3-0.4-0.7-0.8-1.2-1c-0.5-0.2-1.1-0.4-1.7-0.4c-0.6-0.1-1.2-0.1-1.8-0.1h-3.1V96.7z"/>
	<path d="M234.6,85h5l12,27.6h-6.9l-2.4-5.8h-10.7l-2.3,5.8h-6.7L234.6,85z M237,93l-3.4,8.6h6.7L237,93z"/>
	<path d="M254.4,85h10.7c1.4,0,2.7,0.1,4,0.4c1.3,0.3,2.4,0.7,3.3,1.4c0.9,0.6,1.7,1.5,2.3,2.6c0.6,1.1,0.8,2.4,0.8,4
		c0,2-0.5,3.6-1.5,5c-1,1.4-2.5,2.2-4.4,2.6l7,11.7h-7.3l-5.8-11h-3v11h-6.1V85z M260.5,96.4h3.6c0.5,0,1.1,0,1.7-0.1
		s1.2-0.2,1.7-0.4c0.5-0.2,0.9-0.5,1.2-0.9c0.3-0.4,0.5-1,0.5-1.8c0-0.7-0.1-1.3-0.4-1.7c-0.3-0.4-0.7-0.7-1.1-1
		c-0.4-0.2-0.9-0.4-1.5-0.4c-0.6-0.1-1.1-0.1-1.7-0.1h-4V96.4z"/>
	<path d="M288.8,85h5l12,27.6H299l-2.4-5.8h-10.7l-2.3,5.8h-6.7L288.8,85z M291.1,93l-3.4,8.6h6.7L291.1,93z"/>
	<path d="M308.8,85h6.1v22h11.3v5.6h-17.4V85z"/>
	<path d="M329.8,85h6.1v22h11.3v5.6h-17.4V85z"/>
	<path d="M350.7,85h18.8v5.6h-12.7v5.1h12v5.6h-12v5.6h13.4v5.6h-19.5V85z"/>
	<path d="M375.3,85h6.1v22h11.3v5.6h-17.4V85z"/>
</g>
<g>
	<path d="M66.9,90.4H59V85h21.8v5.4h-7.9v22.2h-6.1V90.4z"/>
	<path d="M83.9,85H90v10.3h11.8V85h6.1v27.6h-6.1v-11.9H90v11.9h-6.1V85z"/>
	<path d="M113.7,85h18.8v5.6h-12.7v5.1h12v5.6h-12v5.6h13.4v5.6h-19.5V85z"/>
</g>
<g>
	<rect x="167" y="1.1" class="st0" width="6" height="184.5"/>
</g>
<g>
	<rect x="459" y="47.9" class="st0" width="6" height="104"/>
</g>
<g>
	<rect x="1" y="74.6" class="st0" width="6" height="45.7"/>
</g>
</svg>
